<svg xmlns="http://www.w3.org/2000/svg" viewBox="0 0 64 64">
  <rect width="64" height="64" rx="12" fill="#050d13"/>
  <path d="M22 20h22l-3 30H25L22 20Z" fill="#ffb703"/>
  <path d="M21 15c1-5 8-5 10-1 3-5 12-3 12 2 5-2 9 2 7 7H15c-2-5 2-9 6-8Z" fill="#f8fbff"/>
  <path d="M44 25h5c5 0 8 4 8 9s-3 9-8 9h-7v-6h7c2 0 3-1 3-3s-1-3-3-3h-5v-6Z" fill="#f8fbff"/>
  <path d="M28 25v20M36 25v20" stroke="#ffe08a" stroke-width="4" stroke-linecap="round" opacity=".9"/>
  <path d="M23 20h21l-1 7H24l-1-7Z" fill="#f8fbff" opacity=".9"/>
</svg>
